HIERARCHY
ROOT hip
{
  OFFSET 0 0 0
  CHANNELS 6 Xposition Yposition Zposition Zrotation Yrotation Xrotation
  JOINT abdomen
  {
    OFFSET 0 20.6881 -0.73152
    CHANNELS 3 Zrotation Xrotation Yrotation
    JOINT chest
    {
      OFFSET 0 11.7043 -0.48768
      CHANNELS 3 Zrotation Xrotation Yrotation
      JOINT neck
      {
        OFFSET 0 22.1894 -2.19456
        CHANNELS 3 Zrotation Xrotation Yrotation
        JOINT head
        {
          OFFSET -0.24384 7.07133 1.2192
          CHANNELS 3 Zrotation Xrotation Yrotation
          JOINT leftEye
          {
            OFFSET 4.14528 8.04674 8.04672
            CHANNELS 3 Zrotation Xrotation Yrotation
            End Site
            {
              OFFSET 1 0 0
            }
          }
          JOINT rightEye
          {
            OFFSET -3.6576 8.04674 8.04672
            CHANNELS 3 Zrotation Xrotation Yrotation
            End Site
            {
              OFFSET 1 0 0
            }
          }
        }
      }
      JOINT rCollar
      {
        OFFSET -2.68224 19.2634 -4.8768
        CHANNELS 3 Zrotation Xrotation Yrotation
        JOINT rShldr
        {
          OFFSET -8.77824 -1.95073 1.46304
          CHANNELS 3 Zrotation Xrotation Yrotation
          JOINT rForeArm
          {
            OFFSET -28.1742 -1.7115 0.48768
            CHANNELS 3 Zrotation Xrotation Yrotation
            JOINT rHand
            {
              OFFSET -22.5879 0.773209 7.07136
              CHANNELS 3 Zrotation Xrotation Yrotation
              JOINT rThumb1
              {
                OFFSET -1.2192 -0.487915 3.41376
                CHANNELS 3 Zrotation Xrotation Yrotation
                JOINT rThumb2
                {
                  OFFSET -3.37035 -0.52449 3.41376
                  CHANNELS 3 Zrotation Xrotation Yrotation
                  End Site
                  {
                    OFFSET -1.78271 -1.18214 1.43049
                  }
                }
              }
              JOINT rIndex1
              {
                OFFSET -7.75947 0.938293 5.60832
                CHANNELS 3 Zrotation Xrotation Yrotation
                JOINT rIndex2
                {
                  OFFSET -2.54057 -0.884171 1.56538
                  CHANNELS 3 Zrotation Xrotation Yrotation
                  End Site
                  {
                    OFFSET -1.62519 -0.234802 1.16502
                  }
                }
              }
              JOINT rMid1
              {
                OFFSET -8.24714 1.18213 3.41376
                CHANNELS 3 Zrotation Xrotation Yrotation
                JOINT rMid2
                {
                  OFFSET -3.10165 -0.590103 1.0647
                  CHANNELS 3 Zrotation Xrotation Yrotation
                  End Site
                  {
                    OFFSET -2.48547 -0.328903 0.83742
                  }
                }
              }
              JOINT rRing1
              {
                OFFSET -8.82822 0.546677 1.51678
                CHANNELS 3 Zrotation Xrotation Yrotation
                JOINT rRing2
                {
                  OFFSET -2.60934 -0.819778 -0.0198488
                  CHANNELS 3 Zrotation Xrotation Yrotation
                  End Site
                  {
                    OFFSET -2.33842 -0.294052 0.168128
                  }
                }
              }
              JOINT rPinky1
              {
                OFFSET -8.27202 -0.0477905 -0.4584
                CHANNELS 3 Zrotation Xrotation Yrotation
                JOINT rPinky2
                {
                  OFFSET -1.82734 -0.647385 -0.700984
                  CHANNELS 3 Zrotation Xrotation Yrotation
                  End Site
                  {
                    OFFSET -1.69225 -0.51767 -0.607171
                  }
                }
              }
            }
          }
        }
      }
      JOINT lCollar
      {
        OFFSET 2.68224 19.2634 -4.8768
        CHANNELS 3 Zrotation Xrotation Yrotation
        JOINT lShldr
        {
          OFFSET 8.77824 -1.95073 1.46304
          CHANNELS 3 Zrotation Xrotation Yrotation
          JOINT lForeArm
          {
            OFFSET 28.1742 -1.7115 0.48768
            CHANNELS 3 Zrotation Xrotation Yrotation
            JOINT lHand
            {
              OFFSET 22.5879 0.773209 7.07136
              CHANNELS 3 Zrotation Xrotation Yrotation
              JOINT lThumb1
              {
                OFFSET 1.2192 -0.487915 3.41376
                CHANNELS 3 Zrotation Xrotation Yrotation
                JOINT lThumb2
                {
                  OFFSET 3.37035 -0.52449 3.41376
                  CHANNELS 3 Zrotation Xrotation Yrotation
                  End Site
                  {
                    OFFSET 1.78271 -1.18214 1.43049
                  }
                }
              }
              JOINT lIndex1
              {
                OFFSET 7.75947 0.938293 5.60832
                CHANNELS 3 Zrotation Xrotation Yrotation
                JOINT lIndex2
                {
                  OFFSET 2.54057 -0.884171 1.56538
                  CHANNELS 3 Zrotation Xrotation Yrotation
                  End Site
                  {
                    OFFSET 1.62519 -0.234802 1.16502
                  }
                }
              }
              JOINT lMid1
              {
                OFFSET 8.24714 1.18213 3.41376
                CHANNELS 3 Zrotation Xrotation Yrotation
                JOINT lMid2
                {
                  OFFSET 3.10165 -0.590103 1.0647
                  CHANNELS 3 Zrotation Xrotation Yrotation
                  End Site
                  {
                    OFFSET 2.48547 -0.328903 0.83742
                  }
                }
              }
              JOINT lRing1
              {
                OFFSET 8.82822 0.546677 1.51678
                CHANNELS 3 Zrotation Xrotation Yrotation
                JOINT lRing2
                {
                  OFFSET 2.60934 -0.819778 -0.0198488
                  CHANNELS 3 Zrotation Xrotation Yrotation
                  End Site
                  {
                    OFFSET 2.33842 -0.294052 0.168128
                  }
                }
              }
              JOINT lPinky1
              {
                OFFSET 8.27202 -0.0477905 -0.4584
                CHANNELS 3 Zrotation Xrotation Yrotation
                JOINT lPinky2
                {
                  OFFSET 1.82734 -0.647385 -0.700984
                  CHANNELS 3 Zrotation Xrotation Yrotation
                  End Site
                  {
                    OFFSET 1.69225 -0.51767 -0.607171
                  }
                }
              }
            }
          }
        }
      }
    }
  }
  JOINT rButtock
  {
    OFFSET -8.77824 4.35084 1.2192
    CHANNELS 3 Zrotation Xrotation Yrotation
    JOINT rThigh
    {
      OFFSET 0 -1.70687 -2.19456
      CHANNELS 3 Zrotation Xrotation Yrotation
      JOINT rShin
      {
        OFFSET 0 -36.8199 0.73152
        CHANNELS 3 Zrotation Xrotation Yrotation
        JOINT rFoot
        {
          OFFSET 0.73152 -45.1104 -5.12064
          CHANNELS 3 Zrotation Xrotation Yrotation
          End Site
          {
            OFFSET -1.1221 -3.69964 12.103
          }
        }
      }
    }
  }
  JOINT lButtock
  {
    OFFSET 8.77824 4.35084 1.2192
    CHANNELS 3 Zrotation Xrotation Yrotation
    JOINT lThigh
    {
      OFFSET 0 -1.70687 -2.19456
      CHANNELS 3 Zrotation Xrotation Yrotation
      JOINT lShin
      {
        OFFSET 0 -36.8199 0.73152
        CHANNELS 3 Zrotation Xrotation Yrotation
        JOINT lFoot
        {
          OFFSET -0.73152 -45.1104 -5.12064
          CHANNELS 3 Zrotation Xrotation Yrotation
          End Site
          {
            OFFSET 1.1221 -3.69964 12.103
          }
        }
      }
    }
  }
}
MOTION
Frames:	4
Frame Time:	0.00833333
79.3426 69.6263 -110.946 -366.82 -10.8034 27.9392 8.11083 9.90678 7.27643 3.31877 -0.538204 2.23711 -7.43153 9.99195 -4.80647 2.00646 -14.0693 -8.30849 -0.0 0.0 0.0 -0.0 0.0 0.0 6.35941e-15 -9.54209e-14 1.32043e-13 8.77092 -19.2545 -12.8881 -16.6371 -9.29297 31.0295 -0.258049 -14.3133 -2.05496 3.4725e-09 -2.57359e-09 -9.29511e-10 6.01549e-09 -4.45596e-09 -1.5782e-09 3.4725e-09 -2.57358e-09 -9.29523e-10 7.73091 5.47488 0.417314 3.4725e-09 -2.57359e-09 -9.29511e-10 2.90554 0.965183 0.102902 3.4725e-09 -2.57359e-09 -9.29514e-10 10.2786 0.731801 0.0259123 3.4725e-09 -2.57358e-09 -9.29514e-10 2.22167 -0.733487 -0.20892 6.36318e-15 -9.5412e-14 1.31894e-13 -2.87801 -22.3343 25.7294 18.7329 -11.4969 -35.6857 4.69418 -50.7035 9.88836 1.06091e-09 1.10048e-09 -1.68888e-09 1.89268e-09 1.91078e-09 -2.86832e-09 1.0609e-09 1.10049e-09 -1.68888e-09 -7.73091 5.47488 -0.417314 1.06091e-09 1.10048e-09 -1.68888e-09 -2.90554 0.965183 -0.102902 1.0609e-09 1.10048e-09 -1.68888e-09 -10.2786 0.731801 -0.0259123 1.06091e-09 1.10048e-09 -1.68889e-09 -2.22167 -0.733487 0.20892 -2.03217e-16 0.0 -3.88251e-19 -29.7427 -27.6856 -7.05493 -0.767913 58.1048 2.07472 0.141919 3.12705 -6.15717 2.03217e-16 0.0 3.88251e-19 37.5249 -48.7574 12.3039 0.949674 60.1513 -1.98172 10.2261 -23.6673 19.5608
77.2882 71.1282 -110.315 -366.209 -5.53 29.2025 7.51575 11.6511 7.50595 3.20675 -1.05142 2.31306 -7.8025 9.97041 -5.67872 3.72916 -15.3562 -9.69353 -0.0 0.0 0.0 -0.0 0.0 0.0 3.04778e-14 -1.07021e-13 1.5257e-13 9.19429 -19.843 -10.6528 -16.7435 -9.39708 31.2579 -0.254377 -14.187 -2.03633 3.45937e-09 -4.34863e-09 -1.08478e-09 5.99396e-09 -7.53077e-09 -1.84813e-09 3.45937e-09 -4.34863e-09 -1.0848e-09 7.73091 5.47488 0.417314 3.45937e-09 -4.34864e-09 -1.08478e-09 2.90554 0.965183 0.102902 3.45937e-09 -4.34863e-09 -1.08478e-09 10.2786 0.731801 0.0259123 3.45937e-09 -4.34863e-09 -1.08478e-09 2.22167 -0.733487 -0.20892 3.0499e-14 -1.0702e-13 1.52427e-13 -2.65168 -23.4766 26.9053 18.4966 -11.2317 -35.1409 4.82402 -51.1614 10.0545 1.01286e-09 5.48602e-10 -1.30585e-09 1.79468e-09 9.82781e-10 -2.2081e-09 1.01285e-09 5.48604e-10 -1.30585e-09 -7.73091 5.47488 -0.417314 1.01286e-09 5.48601e-10 -1.30585e-09 -2.90554 0.965183 -0.102902 1.01285e-09 5.48601e-10 -1.30585e-09 -10.2786 0.731801 -0.0259123 1.01286e-09 5.48602e-10 -1.30586e-09 -2.22167 -0.733487 0.20892 -2.03217e-16 0.0 -3.88251e-19 -28.4655 -27.5513 -5.94883 -0.594464 54.4039 1.88193 -0.414803 -0.189787 -8.14656 2.03217e-16 0.0 3.88251e-19 37.051 -50.5072 8.33708 0.705175 55.7051 -1.61935 8.71318 -19.908 18.9034
74.9316 72.4235 -109.861 -365.37 -0.091 30.7475 6.8675 13.6974 7.32124 3.07188 -1.64764 2.26898 -8.11718 9.68753 -6.4923 5.47132 -16.6137 -10.9255 -0.0 0.0 0.0 -0.0 0.0 0.0 8.20767e-14 -5.70449e-14 2.22039e-13 10.1588 -20.8128 -8.13054 -16.8702 -9.52139 31.5326 -0.250516 -14.0362 -2.01426 3.56001e-09 -6.40609e-09 -1.1524e-09 6.16753e-09 -1.10976e-08 -1.96518e-09 3.56001e-09 -6.40609e-09 -1.15242e-09 7.73091 5.47488 0.417314 3.56001e-09 -6.40609e-09 -1.1524e-09 2.90554 0.965183 0.102902 3.56002e-09 -6.40609e-09 -1.1524e-09 10.2786 0.731801 0.0259123 3.56e-09 -6.40609e-09 -1.1524e-09 2.22167 -0.733487 -0.20892 8.21249e-14 -5.70568e-14 2.21893e-13 -2.79104 -24.7389 27.5874 18.2299 -10.9374 -34.5342 4.90314 -51.437 10.1556 1.09311e-09 3.01534e-10 -8.2019e-10 1.91274e-09 5.79698e-10 -1.36518e-09 1.0931e-09 3.01538e-10 -8.20186e-10 -7.73091 5.47488 -0.417314 1.09311e-09 3.01537e-10 -8.20184e-10 -2.90554 0.965183 -0.102902 1.0931e-09 3.01536e-10 -8.20188e-10 -10.2786 0.731801 -0.0259123 1.0931e-09 3.01537e-10 -8.20196e-10 -2.22167 -0.733487 0.20892 -2.03217e-16 0.0 -3.88251e-19 -26.8526 -27.1438 -4.13718 -0.422862 49.5351 1.68321 -1.30512 -3.7421 -10.5464 2.03217e-16 0.0 3.88251e-19 36.1754 -52.2728 3.64846 0.505965 50.2421 -1.27079 6.90935 -14.7398 18.4411
72.4123 74.3069 -109.279 -364.13 5.6196 32.79 6.45592 15.7127 6.86711 2.95786 -2.26782 2.15791 -8.49139 9.38062 -7.22005 7.0856 -17.9194 -11.9877 -0.0 0.0 0.0 -0.0 0.0 0.0 1.22843e-13 3.49748e-14 2.77123e-13 11.0972 -21.7823 -5.53246 -17.0143 -9.66424 31.8457 -0.252104 -14.0727 -2.01979 3.50724e-09 -7.78314e-09 -1.20387e-09 6.07627e-09 -1.34882e-08 -2.05597e-09 3.50724e-09 -7.78314e-09 -1.20389e-09 7.73091 5.47488 0.417314 3.50724e-09 -7.78314e-09 -1.20387e-09 2.90554 0.965183 0.102902 3.50725e-09 -7.78314e-09 -1.20387e-09 10.2786 0.731801 0.0259123 3.50723e-09 -7.78313e-09 -1.20386e-09 2.22167 -0.733487 -0.20892 1.22915e-13 3.49485e-14 2.76973e-13 -3.10453 -25.8735 28.1152 18.0165 -10.7044 -34.057 4.97616 -51.6926 10.2494 1.1624e-09 2.36771e-10 -2.60994e-10 2.00875e-09 4.91173e-10 -3.96623e-10 1.1624e-09 2.36776e-10 -2.60989e-10 -7.73091 5.47488 -0.417314 1.16241e-09 2.36778e-10 -2.6099e-10 -2.90554 0.965183 -0.102902 1.1624e-09 2.36776e-10 -2.60992e-10 -10.2786 0.731801 -0.0259123 1.1624e-09 2.36777e-10 -2.61001e-10 -2.22167 -0.733487 0.20892 -2.03217e-16 0.0 -3.88251e-19 -25.385 -27.0524 -2.05337 -0.296569 44.6723 1.532 -2.4889 -7.228 -13.0061 2.03217e-16 0.0 3.88251e-19 34.9297 -53.9981 -0.839694 0.392067 44.8975 -1.00208 5.25893 -9.4465 18.5058
